<svg width="400" height="400" viewBox="0 0 130 239" fill="none" xmlns="http://www.w3.org/2000/svg">
<path d="M129.77 210.959H98.7705C95.1705 209.759 93.9371 206.126 93.7704 204.46H34.7704C34.3704 208.86 32.2704 210.626 31.2704 210.959H0.27043C-2.52957 176.159 17.1038 152.126 27.2705 144.459C27.1038 143.126 27.1705 135.26 28.7705 114.46C30.3705 93.6595 33.1038 70.1262 34.2705 60.9595C59.4705 50.9595 84.4371 56.7928 93.7705 60.9595L96.7705 87.4595L100.77 144.459C106.27 149.459 112.27 152.959 120.27 166.959C126.67 178.159 129.27 200.959 129.77 210.959Z" fill="url(#paint0_linear_3_63)"/>
<path d="M93.7705 54.4595C91.9371 44.4595 86.0704 21.5595 77.2704 9.95951C66.2704 -4.54049 60.2704 -2.04049 50.2704 9.95951C42.2704 19.5595 36.2704 43.6262 34.2705 54.4595C44.2705 51.4595 70.1705 47.2595 93.7705 54.4595Z" fill="#1656FB"/>
<path d="M50.2704 210.959H79.2704C78.7704 215.293 77.1704 225.16 74.7704 229.96C71.2704 236.626 62.2704 245.96 54.2704 229.96C52.9371 225.793 50.2704 216.159 50.2704 210.959Z" fill="#1656FB"/>
<path d="M76 82C76 88.0751 71.0751 93 65 93C58.9249 93 54 88.0751 54 82C54 75.9249 58.9249 71 65 71C71.0751 71 76 75.9249 76 82Z" fill="white"/>
<path d="M71 82C71 85.3137 68.3137 88 65 88C61.6863 88 59 85.3137 59 82C59 78.6863 61.6863 76 65 76C68.3137 76 71 78.6863 71 82Z" fill="#10C5A5"/>
<path d="M76 119C76 125.075 71.0751 130 65 130C58.9249 130 54 125.075 54 119C54 112.925 58.9249 108 65 108C71.0751 108 76 112.925 76 119Z" fill="white"/>
<path d="M71 119C71 122.314 68.3137 125 65 125C61.6863 125 59 122.314 59 119C59 115.686 61.6863 113 65 113C68.3137 113 71 115.686 71 119Z" fill="#00536A"/>
<path d="M76 156C76 162.075 71.0751 167 65 167C58.9249 167 54 162.075 54 156C54 149.925 58.9249 145 65 145C71.0751 145 76 149.925 76 156Z" fill="white"/>
<path d="M71 156C71 159.314 68.3137 162 65 162C61.6863 162 59 159.314 59 156C59 152.686 61.6863 150 65 150C68.3137 150 71 152.686 71 156Z" fill="#39F6D4"/>
<defs>
<linearGradient id="paint0_linear_3_63" x1="65" y1="67" x2="65" y2="204" gradientUnits="userSpaceOnUse">
<stop stop-color="#329BAF"/>
<stop offset="0.485862" stop-color="#26AAAC"/>
<stop offset="0.916813" stop-color="#18BBA7"/>
</linearGradient>
</defs>
</svg>
